<?xml version="1.0" standalone="no"?><!DOCTYPE svg PUBLIC "-//W3C//DTD SVG 1.1//EN" "http://www.w3.org/Graphics/SVG/1.1/DTD/svg11.dtd"><svg t="1604912293532" class="icon" viewBox="0 0 1109 1024" version="1.1" xmlns="http://www.w3.org/2000/svg" p-id="2314" width="51.984375" height="48" xmlns:xlink="http://www.w3.org/1999/xlink"><defs><style type="text/css"></style></defs><path d="M438.044444 85.333333C317.866667 104.533333 244.622222 143.644444 199.111111 213.333333c-49.777778 78.222222-64 142.933333-64.711111 295.111111-0.711111 263.822222 71.822222 379.022222 264.533333 420.977778 71.111111 14.933333 260.266667 14.933333 332.088889 0 150.755556-32.711111 227.555556-113.777778 254.577778-268.8 14.933333-85.333333 10.666667-278.755556-7.822222-344.177778-34.133333-120.888889-99.555556-185.6-220.444445-216.888888-65.422222-17.066667-248.177778-24.888889-319.288889-14.222223zM796.444444 344.888889V376.888889H334.222222v-64h462.222222v32zM665.6 506.311111c1.422222 14.222222-0.711111 28.444444-3.555556 30.577778-3.555556 2.133333-78.222222 4.266667-165.688888 4.266667l-158.577778 1.422222-2.133334-33.422222-2.133333-32.711112 164.977778 1.422223 164.977778 2.133333 2.133333 26.311111z m66.844444 172.8v32H334.222222v-64h398.222222v32z" p-id="2315" fill="#000000"></path></svg>